<svg t="1668443010634" class="icon" viewBox="0 0 1024 1024" version="1.1" xmlns="http://www.w3.org/2000/svg" p-id="4982" width="200" height="200"><path d="M897.514 772.71l-3.624-1.062c-52.938-14.188-70.876-27.876-94.436-36.812-83.592-31.876-105.342-54.81-110.904-65.654-0.218-0.406-0.344-0.812-0.532-1.218l-0.688-97.09-198.258-2.25-198.276 2.25-0.688 97.09c-0.156 0.406-0.312 0.812-0.532 1.218-5.562 10.844-27.312 33.78-110.902 65.654-23.562 8.938-41.468 22.624-94.404 36.812l-3.624 1.062C32.46 788.646 0.024 833.332 0.024 883.768v140.212h978.078v-140.212c0.004-50.436-32.402-95.122-80.588-111.058z" fill="#48CFAD" p-id="4983"></path><path d="M741.332 709.492c-6.5-3.344-12.218-6.5-17.25-9.532h-0.062c-1.688-1-3.25-2-4.812-2.938v-0.032a58.528 58.528 0 0 1-2.124-1.374l-0.188-0.094c-1.438-0.906-2.75-1.812-4.062-2.688a1.422 1.422 0 0 0-0.218-0.188c-0.532-0.376-1.094-0.75-1.594-1.094-0.124-0.094-0.218-0.156-0.312-0.218a128.8 128.8 0 0 1-3.688-2.72c-0.438-0.312-0.812-0.624-1.188-0.906-0.124-0.094-0.25-0.188-0.376-0.312-0.5-0.376-0.968-0.75-1.438-1.124-0.468 0.438-0.718 0.218-0.75-0.594-8.5-7-12.688-12.562-14.718-16.5-0.218-0.406-0.344-0.812-0.532-1.218l-0.688-97.09-198.258-2.25-198.276 2.25-0.688 97.09c-0.156 0.406-0.312 0.812-0.532 1.218-3.656 7.156-14.406 19.562-45.31 36.374 8.876 10.594 27.156 30.094 55.53 49.406 37.342 25.404 100.498 55.684 189.276 55.684 88.45 0 154.668-30.06 194.634-55.278 27.686-17.466 46.968-35.028 57.624-45.872z" fill="#DBAFA5" p-id="4984"></path><path d="M764.176 382.972c0 178.744-170.402 343.238-275.102 343.238-104.716 0-275.116-164.494-275.116-343.238S337.14 86.294 489.074 86.294c151.95 0 275.102 117.934 275.102 296.678z" fill="#EAC6BB" p-id="4985"></path><path d="M631.086 101.762S625.71 54.2 682.676 19.984c24.124-14.5-361.504-83.216-458.282 160.432-36.342 91.56-9.468 226.274-9.468 226.274l83.81-150.276s91.34 21.342 190.338 21.342c99.012 0 193.634-21.342 193.634-21.342l81.468 126.996s31.28-121.902-3.782-202.712c-35.062-80.81-129.308-78.936-129.308-78.936z" fill="#965353" p-id="4986"></path><path d="M741.332 709.492c-17.344-8.906-29.218-16.654-37.312-23.216-9.844 9.188-24.748 21.592-44.56 33.936-50.874 31.688-108.214 47.782-170.386 47.782-61.81 0-116.872-15.906-163.682-47.218-22.53-15.094-37.624-30.342-45.624-39.404-6.938 6.562-17.968 14.656-35.5 24.186 8.876 10.594 27.156 30.094 55.53 49.406 37.342 25.404 100.498 55.684 189.276 55.684 88.45 0 154.668-30.06 194.634-55.278 27.686-17.472 46.968-35.034 57.624-45.878z" fill="#37BC9B" p-id="4987"></path><path d="M217.3 426.658h543.532c2.124-14.094 3.282-28.312 3.312-42.654H213.988c0.032 14.342 1.188 28.56 3.312 42.654z" fill="#656D78" p-id="4988"></path><path d="M480.074 405.316c0 41.25-5.25 74.684-106.684 74.684s-106.654-33.436-106.654-74.684c0-41.218 15.688-74.654 106.654-74.654 90.996 0 106.684 33.436 106.684 74.654zM715.644 405.316c0 41.25-5.188 74.684-106.652 74.684-101.482 0-106.67-33.436-106.67-74.684 0-41.218 15.658-74.654 106.67-74.654 90.966 0 106.652 33.436 106.652 74.654z" fill="#5D9CEC" p-id="4989"></path><path d="M985.356 737.804a21.5 21.5 0 0 0-6.438-9.532l-47.782-40.53a21.268 21.268 0 0 0-13.78-5.094h-42.686a21.286 21.286 0 0 0-15.062 6.25l-15.094 15.092h-195.618l-15.156-15.092c-4-4-9.406-6.25-15.062-6.25h-42.656a21.352 21.352 0 0 0-17.874 9.688l-26.454 40.56a23.768 23.768 0 0 0-2.342 4.906c-43.75 131.464-50.25 215.804-19.908 257.868 13.314 18.532 33.156 28.31 57.326 28.31 20.75 0 50.156-9.466 72.438-54.56 5.438-11.062 9.376-22.094 12-30.782h212.304c2.624 8.688 6.532 19.718 12 30.782 22.28 45.094 51.684 54.56 72.402 54.56 24.188 0 44-9.78 57.344-28.31 30.346-42.06 23.846-126.4-19.902-257.866z" fill="#656D78" p-id="4990"></path><path d="M725.364 895.988c0 23.56-19.124 42.652-42.688 42.652-23.56 0-42.652-19.092-42.652-42.652 0-23.562 19.092-42.688 42.652-42.688 23.562 0 42.688 19.126 42.688 42.688z" fill="#CCD1D9" p-id="4991"></path><path d="M682.676 959.984c-35.278 0-63.996-28.716-63.996-63.996 0-35.312 28.718-64 63.996-64 35.312 0 64 28.688 64 64 0 35.28-28.688 63.996-64 63.996z m0-85.34c-11.748 0-21.31 9.562-21.31 21.344 0 11.748 9.562 21.31 21.31 21.31 11.782 0 21.344-9.562 21.344-21.31 0-11.78-9.562-21.344-21.344-21.344z" fill="#AAB2BC" p-id="4992"></path><path d="M874.672 895.988c0 23.56-19.094 42.652-42.656 42.652s-42.654-19.092-42.654-42.652c0-23.562 19.092-42.688 42.654-42.688s42.656 19.126 42.656 42.688z" fill="#CCD1D9" p-id="4993"></path><path d="M832.016 959.984c-35.28 0-63.996-28.716-63.996-63.996 0-35.312 28.716-64 63.996-64 35.282 0 63.998 28.688 63.998 64 0 35.28-28.718 63.996-63.998 63.996z m0-85.34c-11.75 0-21.344 9.562-21.344 21.344 0 11.748 9.594 21.31 21.344 21.31s21.344-9.562 21.344-21.31c0-11.78-9.594-21.344-21.344-21.344z" fill="#AAB2BC" p-id="4994"></path><path d="M844.516 703.992h-195.618l-0.28 64h195.866z" fill="#434A54" p-id="4995"></path>
  <style>
    @media (prefers-color-scheme:dark){:root{filter:invert(100%)}}
  </style>
</svg>